<svg xmlns="http://www.w3.org/2000/svg" width="294.451" height="172.289" viewBox="0 0 294.451 172.289"><path d="M6.836 45.528L0 45.528L0 13.673L6.836 13.673L6.836 18.182L9.091 18.182L9.091 15.927L11.418 15.927L11.418 13.673L29.600 13.673L29.600 18.182L13.673 18.182L13.673 20.509L11.418 20.509L11.418 22.764L9.091 22.764L9.091 25.018L6.836 25.018L6.836 45.528ZM37.521 45.528L30.685 45.528L30.685 0L55.703 0L55.703 2.327L57.958 2.327L57.958 4.582L60.285 4.582L60.285 22.764L57.958 22.764L57.958 25.018L55.703 25.018L55.703 27.346L44.358 27.346L44.358 29.600L46.612 29.600L46.612 31.855L48.867 31.855L48.867 34.109L51.122 34.109L51.122 36.364L53.449 36.364L53.449 38.691L55.703 38.691L55.703 40.946L57.958 40.946L57.958 43.200L60.285 43.200L60.285 45.528L53.449 45.528L53.449 43.200L51.122 43.200L51.122 40.946L48.867 40.946L48.867 38.691L46.612 38.691L46.612 36.364L44.358 36.364L44.358 34.109L42.103 34.109L42.103 31.855L39.776 31.855L39.776 29.600L37.521 29.600L37.521 45.528ZM53.449 6.836L51.122 6.836L51.122 4.582L37.521 4.582L37.521 22.764L51.122 22.764L51.122 20.509L53.449 20.509L53.449 6.836ZM95.758 45.528L88.922 45.528L88.922 13.673L95.758 13.673L95.758 18.182L98.013 18.182L98.013 15.927L100.340 15.927L100.340 13.673L118.522 13.673L118.522 18.182L102.595 18.182L102.595 20.509L100.340 20.509L100.340 22.764L98.013 22.764L98.013 25.018L95.758 25.018L95.758 45.528ZM124.496 18.182L119.914 18.182L119.914 13.673L131.260 13.673L131.260 40.946L135.842 40.946L135.842 45.528L119.914 45.528L119.914 40.946L124.496 40.946L124.496 18.182ZM131.260 9.164L124.496 9.164L124.496 0L131.260 0L131.260 9.164ZM139.489 15.927L141.816 15.927L141.816 13.673L162.253 13.673L162.253 15.927L164.507 15.927L164.507 18.182L166.834 18.182L166.834 22.764L159.998 22.764L159.998 20.509L157.671 20.509L157.671 18.182L146.325 18.182L146.325 20.509L144.071 20.509L144.071 38.691L146.325 38.691L146.325 40.946L157.671 40.946L157.671 38.691L159.998 38.691L159.998 36.364L166.834 36.364L166.834 40.946L164.507 40.946L164.507 43.200L162.253 43.200L162.253 45.528L141.816 45.528L141.816 43.200L139.489 43.200L139.489 40.946L137.234 40.946L137.234 18.182L139.489 18.182L139.489 15.927ZM170.481 15.927L172.808 15.927L172.808 13.673L193.245 13.673L193.245 15.927L195.500 15.927L195.500 18.182L197.827 18.182L197.827 31.855L175.063 31.855L175.063 38.691L177.318 38.691L177.318 40.946L190.990 40.946L190.990 38.691L197.827 38.691L197.827 43.200L195.500 43.200L195.500 45.528L172.808 45.528L172.808 43.200L170.481 43.200L170.481 40.946L168.227 40.946L168.227 18.182L170.481 18.182L170.481 15.927ZM190.990 20.509L188.663 20.509L188.663 18.182L177.318 18.182L177.318 20.509L175.063 20.509L175.063 27.346L190.990 27.346L190.990 20.509ZM206.055 45.528L199.219 45.528L199.219 0L224.237 0L224.237 2.327L226.492 2.327L226.492 4.582L228.819 4.582L228.819 22.764L226.492 22.764L226.492 25.018L224.237 25.018L224.237 27.346L212.892 27.346L212.892 29.600L215.146 29.600L215.146 31.855L217.401 31.855L217.401 34.109L219.656 34.109L219.656 36.364L221.983 36.364L221.983 38.691L224.237 38.691L224.237 40.946L226.492 40.946L226.492 43.200L228.819 43.200L228.819 45.528L221.983 45.528L221.983 43.200L219.656 43.200L219.656 40.946L217.401 40.946L217.401 38.691L215.146 38.691L215.146 36.364L212.892 36.364L212.892 34.109L210.637 34.109L210.637 31.855L208.310 31.855L208.310 29.600L206.055 29.600L206.055 45.528ZM221.983 6.836L219.656 6.836L219.656 4.582L206.055 4.582L206.055 22.764L219.656 22.764L219.656 20.509L221.983 20.509L221.983 6.836ZM250.648 18.182L232.466 18.182L232.466 13.673L255.230 13.673L255.230 15.927L257.485 15.927L257.485 18.182L259.812 18.182L259.812 45.528L234.793 45.528L234.793 43.200L232.466 43.200L232.466 40.946L230.212 40.946L230.212 29.600L232.466 29.600L232.466 27.346L234.793 27.346L234.793 25.018L252.975 25.018L252.975 20.509L250.648 20.509L250.648 18.182ZM239.303 40.946L252.975 40.946L252.975 29.600L239.303 29.600L239.303 31.855L237.048 31.855L237.048 38.691L239.303 38.691L239.303 40.946ZM265.786 18.182L261.204 18.182L261.204 13.673L272.550 13.673L272.550 40.946L277.131 40.946L277.131 45.528L261.204 45.528L261.204 40.946L265.786 40.946L265.786 18.182ZM272.550 9.164L265.786 9.164L265.786 0L272.550 0L272.550 9.164ZM283.106 4.582L278.524 4.582L278.524 0L289.869 0L289.869 40.946L294.451 40.946L294.451 45.528L278.524 45.528L278.524 40.946L283.106 40.946L283.106 4.582ZM123.919 155.367L117.083 155.367L117.083 123.513L123.919 123.513L123.919 128.022L126.174 128.022L126.174 125.767L128.501 125.767L128.501 123.513L146.683 123.513L146.683 128.022L130.756 128.022L130.756 130.349L128.501 130.349L128.501 132.604L126.174 132.604L126.174 134.858L123.919 134.858L123.919 155.367ZM154.604 155.367L147.768 155.367L147.768 109.840L172.786 109.840L172.786 112.167L175.041 112.167L175.041 114.422L177.368 114.422L177.368 132.604L175.041 132.604L175.041 134.858L172.786 134.858L172.786 137.185L161.441 137.185L161.441 139.440L163.695 139.440L163.695 141.695L165.950 141.695L165.950 143.949L168.205 143.949L168.205 146.204L170.532 146.204L170.532 148.531L172.786 148.531L172.786 150.786L175.041 150.786L175.041 153.040L177.368 153.040L177.368 155.367L170.532 155.367L170.532 153.040L168.205 153.040L168.205 150.786L165.950 150.786L165.950 148.531L163.695 148.531L163.695 146.204L161.441 146.204L161.441 143.949L159.186 143.949L159.186 141.695L156.859 141.695L156.859 139.440L154.604 139.440L154.604 155.367ZM170.532 116.676L168.205 116.676L168.205 114.422L154.604 114.422L154.604 132.604L168.205 132.604L168.205 130.349L170.532 130.349L170.532 116.676Z" style="fill:#00a020;fill-opacity:1;fill-rule:nonzero;stroke:none"/><path d="M118.123 92.918C112.314 92.918 107.54 97.696 107.54 103.5v58.203c0 5.809 4.774 10.586 10.583 10.586h58.203c5.804 0 10.586 -4.777 10.586 -10.586V103.5C186.912 97.696 182.13 92.918 176.326 92.918zm0 6.613h58.203c2.254 0 3.968 1.711 3.968 3.969v58.203c0 2.258 -1.714 3.973 -3.968 3.973H118.123c-2.258 0 -3.973 -1.715 -3.973 -3.973V103.5c0 -2.258 1.715 -3.969 3.973 -3.969" style="fill:#009e20;fill-opacity:1;fill-rule:nonzero;stroke:none"/><path d="M118.962 104.719v-0.445h1.313v0.445h0.449v0.438h0.434v0.433h0.433v0.445h0.434v0.434h0.437v0.438h0.446v0.433h0.433v0.434h0.434v0.445h0.449v0.871h-0.449v0.445h-0.434v0.434h-0.433v0.438h-0.446v0.433h-0.437v0.434h-0.434v0.445h-0.433v0.438h-0.434v0.433h-0.449v0.445h-1.313v-0.445h0.446v-0.433h0.433v-0.438h0.434v-0.445h0.449v-0.434h0.434v-0.433h0.433v-0.438h0.434v-0.434h0.437v-0.445h0.446v-0.871h-0.446v-0.445h-0.437v-0.434h-0.434v-0.433h-0.433v-0.438h-0.434v-0.434h-0.449v-0.445h-0.434v-0.433h-0.433v-0.438z" style="fill:#009e20;fill-opacity:.966867;fill-rule:nonzero;stroke:none"/><path d="M118.587 103.899v1.195h0.45v0.437h0.429v0.434h0.434v0.445h0.445v0.434h0.438v0.437h0.433v0.434h0.438v0.438h0.429v0.445h0.45v0.117h-0.45v0.449h-0.429v0.43h-0.438v0.434h-0.433v0.437h-0.438v0.434h-0.445v0.445h-0.434v0.434h-0.429v0.437h-0.45v1.195h2.063v-0.449h0.449v-0.43h0.434v-0.433h0.437v-0.449h0.43v-0.438h0.437v-0.43h0.45v-0.433h0.433v-0.438h0.43v-0.449h0.449V107.848h-0.449v-0.449h-0.43v-0.434h-0.433v-0.437h-0.45v-0.43h-0.437v-0.438h-0.43v-0.449h-0.437v-0.433h-0.434v-0.43h-0.449v-0.449zm1.196 0.746h0.117v0.133h-0.117zm0.437 0.449h0.125v0.117h-0.125zm0.43 0.437h0.133v0.129h-0.133zm0.449 0.434h0.117v0.133h-0.117zm0.434 0.445h0.121v0.118h-0.121zm0.437 0.434h0.113v0.121h-0.113zm0.43 0.437h0.133v0.118h-0.133zm0.437 0.434h0.129v0.133h-0.129zm0.45 0.438h0.117v0.445h0.449v0.117h-0.449v0.449h-0.117zm-0.45 1.308h0.129v0.133h-0.129zm-0.437 0.449h0.133v0.118h-0.133zm-0.43 0.438h0.113v0.117h-0.113zm-0.437 0.433h0.121v0.118h-0.121zm-0.434 0.43h0.117v0.133h-0.117zm-0.449 0.438h0.133v0.129h-0.133zm-0.43 0.449h0.125v0.117h-0.125zm-0.437 0.433h0.117v0.133h-0.117z" style="fill:#009e20;fill-opacity:1;fill-rule:nonzero;stroke:none"/></svg>