<svg xmlns="http://www.w3.org/2000/svg" width="292.159" height="79.371" viewBox="0 0 292.159 79.371"><path d="M16.380 62.449L9.544 62.449L9.544 30.595L16.380 30.595L16.380 35.104L18.635 35.104L18.635 32.849L20.962 32.849L20.962 30.595L39.144 30.595L39.144 35.104L23.216 35.104L23.216 37.431L20.962 37.431L20.962 39.686L18.635 39.686L18.635 41.940L16.380 41.940L16.380 62.449ZM47.065 62.449L40.228 62.449L40.228 16.922L65.247 16.922L65.247 19.249L67.501 19.249L67.501 21.504L69.829 21.504L69.829 39.686L67.501 39.686L67.501 41.940L65.247 41.940L65.247 44.267L53.901 44.267L53.901 46.522L56.156 46.522L56.156 48.777L58.410 48.777L58.410 51.031L60.665 51.031L60.665 53.286L62.992 53.286L62.992 55.613L65.247 55.613L65.247 57.868L67.501 57.868L67.501 60.122L69.829 60.122L69.829 62.449L62.992 62.449L62.992 60.122L60.665 60.122L60.665 57.868L58.410 57.868L58.410 55.613L56.156 55.613L56.156 53.286L53.901 53.286L53.901 51.031L51.647 51.031L51.647 48.777L49.319 48.777L49.319 46.522L47.065 46.522L47.065 62.449ZM62.992 23.758L60.665 23.758L60.665 21.504L47.065 21.504L47.065 39.686L60.665 39.686L60.665 37.431L62.992 37.431L62.992 23.758ZM93.466 62.449L86.630 62.449L86.630 30.595L93.466 30.595L93.466 35.104L95.721 35.104L95.721 32.849L98.048 32.849L98.048 30.595L116.230 30.595L116.230 35.104L100.303 35.104L100.303 37.431L98.048 37.431L98.048 39.686L95.721 39.686L95.721 41.940L93.466 41.940L93.466 62.449ZM122.204 35.104L117.622 35.104L117.622 30.595L128.968 30.595L128.968 57.868L133.550 57.868L133.550 62.449L117.622 62.449L117.622 57.868L122.204 57.868L122.204 35.104ZM128.968 26.085L122.204 26.085L122.204 16.922L128.968 16.922L128.968 26.085ZM137.197 32.849L139.524 32.849L139.524 30.595L159.961 30.595L159.961 32.849L162.215 32.849L162.215 35.104L164.542 35.104L164.542 39.686L157.706 39.686L157.706 37.431L155.379 37.431L155.379 35.104L144.033 35.104L144.033 37.431L141.779 37.431L141.779 55.613L144.033 55.613L144.033 57.868L155.379 57.868L155.379 55.613L157.706 55.613L157.706 53.286L164.542 53.286L164.542 57.868L162.215 57.868L162.215 60.122L159.961 60.122L159.961 62.449L139.524 62.449L139.524 60.122L137.197 60.122L137.197 57.868L134.942 57.868L134.942 35.104L137.197 35.104L137.197 32.849ZM168.189 32.849L170.516 32.849L170.516 30.595L190.953 30.595L190.953 32.849L193.208 32.849L193.208 35.104L195.535 35.104L195.535 48.777L172.771 48.777L172.771 55.613L175.026 55.613L175.026 57.868L188.698 57.868L188.698 55.613L195.535 55.613L195.535 60.122L193.208 60.122L193.208 62.449L170.516 62.449L170.516 60.122L168.189 60.122L168.189 57.868L165.935 57.868L165.935 35.104L168.189 35.104L168.189 32.849ZM188.698 37.431L186.371 37.431L186.371 35.104L175.026 35.104L175.026 37.431L172.771 37.431L172.771 44.267L188.698 44.267L188.698 37.431ZM203.763 62.449L196.927 62.449L196.927 16.922L221.945 16.922L221.945 19.249L224.200 19.249L224.200 21.504L226.527 21.504L226.527 39.686L224.200 39.686L224.200 41.940L221.945 41.940L221.945 44.267L210.600 44.267L210.600 46.522L212.854 46.522L212.854 48.777L215.109 48.777L215.109 51.031L217.364 51.031L217.364 53.286L219.691 53.286L219.691 55.613L221.945 55.613L221.945 57.868L224.200 57.868L224.200 60.122L226.527 60.122L226.527 62.449L219.691 62.449L219.691 60.122L217.364 60.122L217.364 57.868L215.109 57.868L215.109 55.613L212.854 55.613L212.854 53.286L210.600 53.286L210.600 51.031L208.345 51.031L208.345 48.777L206.018 48.777L206.018 46.522L203.763 46.522L203.763 62.449ZM219.691 23.758L217.364 23.758L217.364 21.504L203.763 21.504L203.763 39.686L217.364 39.686L217.364 37.431L219.691 37.431L219.691 23.758ZM248.356 35.104L230.174 35.104L230.174 30.595L252.938 30.595L252.938 32.849L255.193 32.849L255.193 35.104L257.520 35.104L257.520 62.449L232.501 62.449L232.501 60.122L230.174 60.122L230.174 57.868L227.920 57.868L227.920 46.522L230.174 46.522L230.174 44.267L232.501 44.267L232.501 41.940L250.683 41.940L250.683 37.431L248.356 37.431L248.356 35.104ZM237.011 57.868L250.683 57.868L250.683 46.522L237.011 46.522L237.011 48.777L234.756 48.777L234.756 55.613L237.011 55.613L237.011 57.868ZM263.494 35.104L258.912 35.104L258.912 30.595L270.258 30.595L270.258 57.868L274.839 57.868L274.839 62.449L258.912 62.449L258.912 57.868L263.494 57.868L263.494 35.104ZM270.258 26.085L263.494 26.085L263.494 16.922L270.258 16.922L270.258 26.085ZM280.814 21.504L276.232 21.504L276.232 16.922L287.577 16.922L287.577 57.868L292.159 57.868L292.159 62.449L276.232 62.449L276.232 57.868L280.814 57.868L280.814 21.504Z" style="fill:#00a020;fill-opacity:1;fill-rule:nonzero;stroke:none"/><path d="M10.583 0C4.774 0 0 4.778 0 10.582v58.203c0 5.809 4.774 10.586 10.583 10.586h58.203c5.804 0 10.586-4.777 10.586-10.586V10.582C79.372 4.778 74.59 0 68.786 0zm0 6.613h58.203c2.254 0 3.968 1.711 3.968 3.969v58.203c0 2.258-1.714 3.973-3.968 3.973H10.583c-2.258 0-3.973-1.715-3.973-3.973V10.582c0-2.258 1.715-3.969 3.973-3.969" style="fill:#009e20;fill-opacity:1;fill-rule:nonzero;stroke:none"/><path d="M11.422 11.801v-.445h1.313v.445h.449v.438h.434v.433h.433v.445h.434v.434h.437v.438h.446v.433h.433v.434h.434v.445h.449v.871h-.449v.445h-.434v.434h-.433v.438h-.446v.433h-.437v.434h-.434v.445h-.433v.438h-.434v.433h-.449v.445h-1.313v-.445h.446v-.433h.433v-.438h.434v-.445h.449v-.434h.434v-.433h.433v-.438h.434v-.434h.437v-.445h.446v-.871h-.446v-.445h-.437v-.434h-.434v-.433h-.433v-.438h-.434v-.434h-.449v-.445h-.434v-.433h-.433v-.438z" style="fill:#009e20;fill-opacity:.966867;fill-rule:nonzero;stroke:none"/><path d="M11.047 10.981v1.195h.45v.437h.429v.434h.434v.445h.445v.434h.438v.437h.433v.434h.438v.438h.429v.445h.45v.117h-.45v.449h-.429v.43h-.438v.434h-.433v.437h-.438v.434h-.445v.445h-.434v.434h-.429v.437h-.45v1.195h2.063v-.449h.449v-.43h.434v-.433h.437v-.449h.43v-.438h.437v-.43h.45v-.433h.433v-.438h.43v-.449h.449V14.93h-.449v-.449h-.43v-.434h-.433v-.437h-.45v-.43h-.437v-.438h-.43v-.449h-.437v-.433h-.434v-.43h-.449v-.449zm1.196.746h.117v.133h-.117zm.437.449h.125v.117h-.125zm.43.437h.133v.129h-.133zm.449.434h.117v.133h-.117zm.434.445h.121v.118h-.121zm.437.434h.113v.121h-.113zm.43.437h.133v.118h-.133zm.437.434h.129v.133h-.129zm.45.438h.117v.445h.449v.117h-.449v.449h-.117zm-.45 1.308h.129v.133h-.129zm-.437.449h.133v.118h-.133zm-.43.438h.113v.117h-.113zm-.437.433h.121v.118h-.121zm-.434.43h.117v.133h-.117zm-.449.438h.133v.129h-.133zm-.43.449h.125v.117h-.125zm-.437.433h.117v.133h-.117z" style="fill:#009e20;fill-opacity:1;fill-rule:nonzero;stroke:none"/></svg>