<svg xmlns="http://www.w3.org/2000/svg" width="79.372" height="79.371" viewBox="0 0 79.372 79.371"><path d="M16.380 62.449L9.544 62.449L9.544 30.595L16.380 30.595L16.380 35.104L18.635 35.104L18.635 32.849L20.962 32.849L20.962 30.595L39.144 30.595L39.144 35.104L23.216 35.104L23.216 37.431L20.962 37.431L20.962 39.686L18.635 39.686L18.635 41.940L16.380 41.940L16.380 62.449ZM47.065 62.449L40.228 62.449L40.228 16.922L65.247 16.922L65.247 19.249L67.501 19.249L67.501 21.504L69.829 21.504L69.829 39.686L67.501 39.686L67.501 41.940L65.247 41.940L65.247 44.267L53.901 44.267L53.901 46.522L56.156 46.522L56.156 48.777L58.410 48.777L58.410 51.031L60.665 51.031L60.665 53.286L62.992 53.286L62.992 55.613L65.247 55.613L65.247 57.868L67.501 57.868L67.501 60.122L69.829 60.122L69.829 62.449L62.992 62.449L62.992 60.122L60.665 60.122L60.665 57.868L58.410 57.868L58.410 55.613L56.156 55.613L56.156 53.286L53.901 53.286L53.901 51.031L51.647 51.031L51.647 48.777L49.319 48.777L49.319 46.522L47.065 46.522L47.065 62.449ZM62.992 23.758L60.665 23.758L60.665 21.504L47.065 21.504L47.065 39.686L60.665 39.686L60.665 37.431L62.992 37.431L62.992 23.758Z" style="fill:#00a020;fill-opacity:1;fill-rule:nonzero;stroke:none"/><path d="M10.583 0C4.774 0 0 4.778 0 10.582v58.203c0 5.809 4.774 10.586 10.583 10.586h58.203c5.804 0 10.586-4.777 10.586-10.586V10.582C79.372 4.778 74.59 0 68.786 0zm0 6.613h58.203c2.254 0 3.968 1.711 3.968 3.969v58.203c0 2.258-1.714 3.973-3.968 3.973H10.583c-2.258 0-3.973-1.715-3.973-3.973V10.582c0-2.258 1.715-3.969 3.973-3.969" style="fill:#009e20;fill-opacity:1;fill-rule:nonzero;stroke:none"/><path d="M11.422 11.801v-.445h1.313v.445h.449v.438h.434v.433h.433v.445h.434v.434h.437v.438h.446v.433h.433v.434h.434v.445h.449v.871h-.449v.445h-.434v.434h-.433v.438h-.446v.433h-.437v.434h-.434v.445h-.433v.438h-.434v.433h-.449v.445h-1.313v-.445h.446v-.433h.433v-.438h.434v-.445h.449v-.434h.434v-.433h.433v-.438h.434v-.434h.437v-.445h.446v-.871h-.446v-.445h-.437v-.434h-.434v-.433h-.433v-.438h-.434v-.434h-.449v-.445h-.434v-.433h-.433v-.438z" style="fill:#009e20;fill-opacity:.966867;fill-rule:nonzero;stroke:none"/><path d="M11.047 10.981v1.195h.45v.437h.429v.434h.434v.445h.445v.434h.438v.437h.433v.434h.438v.438h.429v.445h.45v.117h-.45v.449h-.429v.43h-.438v.434h-.433v.437h-.438v.434h-.445v.445h-.434v.434h-.429v.437h-.45v1.195h2.063v-.449h.449v-.43h.434v-.433h.437v-.449h.43v-.438h.437v-.43h.45v-.433h.433v-.438h.43v-.449h.449V14.93h-.449v-.449h-.43v-.434h-.433v-.437h-.45v-.43h-.437v-.438h-.43v-.449h-.437v-.433h-.434v-.43h-.449v-.449zm1.196.746h.117v.133h-.117zm.437.449h.125v.117h-.125zm.43.437h.133v.129h-.133zm.449.434h.117v.133h-.117zm.434.445h.121v.118h-.121zm.437.434h.113v.121h-.113zm.43.437h.133v.118h-.133zm.437.434h.129v.133h-.129zm.45.438h.117v.445h.449v.117h-.449v.449h-.117zm-.45 1.308h.129v.133h-.129zm-.437.449h.133v.118h-.133zm-.43.438h.113v.117h-.113zm-.437.433h.121v.118h-.121zm-.434.43h.117v.133h-.117zm-.449.438h.133v.129h-.133zm-.43.449h.125v.117h-.125zm-.437.433h.117v.133h-.117z" style="fill:#009e20;fill-opacity:1;fill-rule:nonzero;stroke:none"/></svg>