<svg xmlns="http://www.w3.org/2000/svg" width="60.285" height="45.528" viewBox="0 0 60.285 45.528"><path d="M6.836 45.528L0 45.528L0 13.673L6.836 13.673L6.836 18.182L9.091 18.182L9.091 15.927L11.418 15.927L11.418 13.673L29.600 13.673L29.600 18.182L13.673 18.182L13.673 20.509L11.418 20.509L11.418 22.764L9.091 22.764L9.091 25.018L6.836 25.018L6.836 45.528ZM37.521 45.528L30.685 45.528L30.685 0L55.703 0L55.703 2.327L57.958 2.327L57.958 4.582L60.285 4.582L60.285 22.764L57.958 22.764L57.958 25.018L55.703 25.018L55.703 27.346L44.358 27.346L44.358 29.600L46.612 29.600L46.612 31.855L48.867 31.855L48.867 34.109L51.122 34.109L51.122 36.364L53.449 36.364L53.449 38.691L55.703 38.691L55.703 40.946L57.958 40.946L57.958 43.200L60.285 43.200L60.285 45.528L53.449 45.528L53.449 43.200L51.122 43.200L51.122 40.946L48.867 40.946L48.867 38.691L46.612 38.691L46.612 36.364L44.358 36.364L44.358 34.109L42.103 34.109L42.103 31.855L39.776 31.855L39.776 29.600L37.521 29.600L37.521 45.528ZM53.449 6.836L51.122 6.836L51.122 4.582L37.521 4.582L37.521 22.764L51.122 22.764L51.122 20.509L53.449 20.509L53.449 6.836Z" style="fill:#00a020;fill-opacity:1;fill-rule:nonzero;stroke:none"/></svg>