<svg xmlns="http://www.w3.org/2000/svg" width="205.529" height="45.528" viewBox="0 0 205.529 45.528"><path d="M6.836 45.528L0 45.528L0 13.673L6.836 13.673L6.836 18.182L9.091 18.182L9.091 15.927L11.418 15.927L11.418 13.673L29.600 13.673L29.600 18.182L13.673 18.182L13.673 20.509L11.418 20.509L11.418 22.764L9.091 22.764L9.091 25.018L6.836 25.018L6.836 45.528ZM35.574 18.182L30.992 18.182L30.992 13.673L42.338 13.673L42.338 40.946L46.920 40.946L46.920 45.528L30.992 45.528L30.992 40.946L35.574 40.946L35.574 18.182ZM42.338 9.164L35.574 9.164L35.574 0L42.338 0L42.338 9.164ZM50.567 15.927L52.894 15.927L52.894 13.673L73.331 13.673L73.331 15.927L75.585 15.927L75.585 18.182L77.912 18.182L77.912 22.764L71.076 22.764L71.076 20.509L68.749 20.509L68.749 18.182L57.403 18.182L57.403 20.509L55.149 20.509L55.149 38.691L57.403 38.691L57.403 40.946L68.749 40.946L68.749 38.691L71.076 38.691L71.076 36.364L77.912 36.364L77.912 40.946L75.585 40.946L75.585 43.200L73.331 43.200L73.331 45.528L52.894 45.528L52.894 43.200L50.567 43.200L50.567 40.946L48.312 40.946L48.312 18.182L50.567 18.182L50.567 15.927ZM81.559 15.927L83.886 15.927L83.886 13.673L104.323 13.673L104.323 15.927L106.578 15.927L106.578 18.182L108.905 18.182L108.905 31.855L86.141 31.855L86.141 38.691L88.396 38.691L88.396 40.946L102.068 40.946L102.068 38.691L108.905 38.691L108.905 43.200L106.578 43.200L106.578 45.528L83.886 45.528L83.886 43.200L81.559 43.200L81.559 40.946L79.305 40.946L79.305 18.182L81.559 18.182L81.559 15.927ZM102.068 20.509L99.741 20.509L99.741 18.182L88.396 18.182L88.396 20.509L86.141 20.509L86.141 27.346L102.068 27.346L102.068 20.509ZM117.133 45.528L110.297 45.528L110.297 0L135.315 0L135.315 2.327L137.570 2.327L137.570 4.582L139.897 4.582L139.897 22.764L137.570 22.764L137.570 25.018L135.315 25.018L135.315 27.346L123.970 27.346L123.970 29.600L126.224 29.600L126.224 31.855L128.479 31.855L128.479 34.109L130.734 34.109L130.734 36.364L133.061 36.364L133.061 38.691L135.315 38.691L135.315 40.946L137.570 40.946L137.570 43.200L139.897 43.200L139.897 45.528L133.061 45.528L133.061 43.200L130.734 43.200L130.734 40.946L128.479 40.946L128.479 38.691L126.224 38.691L126.224 36.364L123.970 36.364L123.970 34.109L121.715 34.109L121.715 31.855L119.388 31.855L119.388 29.600L117.133 29.600L117.133 45.528ZM133.061 6.836L130.734 6.836L130.734 4.582L117.133 4.582L117.133 22.764L130.734 22.764L130.734 20.509L133.061 20.509L133.061 6.836ZM161.726 18.182L143.544 18.182L143.544 13.673L166.308 13.673L166.308 15.927L168.563 15.927L168.563 18.182L170.890 18.182L170.890 45.528L145.871 45.528L145.871 43.200L143.544 43.200L143.544 40.946L141.290 40.946L141.290 29.600L143.544 29.600L143.544 27.346L145.871 27.346L145.871 25.018L164.053 25.018L164.053 20.509L161.726 20.509L161.726 18.182ZM150.381 40.946L164.053 40.946L164.053 29.600L150.381 29.600L150.381 31.855L148.126 31.855L148.126 38.691L150.381 38.691L150.381 40.946ZM176.864 18.182L172.282 18.182L172.282 13.673L183.628 13.673L183.628 40.946L188.209 40.946L188.209 45.528L172.282 45.528L172.282 40.946L176.864 40.946L176.864 18.182ZM183.628 9.164L176.864 9.164L176.864 0L183.628 0L183.628 9.164ZM194.184 4.582L189.602 4.582L189.602 0L200.947 0L200.947 40.946L205.529 40.946L205.529 45.528L189.602 45.528L189.602 40.946L194.184 40.946L194.184 4.582Z" style="fill:#00a020;fill-opacity:1;fill-rule:nonzero;stroke:none"/></svg>